<?xml version="1.0" standalone="no"?>
<svg xmlns="http://www.w3.org/2000/svg" width="204.87608815563829" height="63.74327565563828" viewBox="0 0 204.87608815563829 63.74327565563828"><path fill="#4c4cff" fill-rule="nonzero" d="M16.54 1.93L16.54 1.93L16.17 7.68L16.04 7.71Q14.59 5.55 11.11 4.90L11.11 4.90Q10.02 4.69 9.01 4.69Q8.01 4.69 7.29 4.86Q6.58 5.04 6.07 5.37L6.07 5.37Q5 6.07 5 7.21L5 7.21Q5 8.69 5.94 9.43L5.94 9.43Q7.11 10.33 9.82 10.69Q12.54 11.05 14.18 11.68Q15.82 12.30 16.88 13.26L16.88 13.26Q18.87 15.06 18.87 18.34L18.87 18.34Q18.87 22.64 15.63 24.96L15.63 24.96Q12.85 26.95 8.63 26.95L8.63 26.95Q5.23 26.95 1.91 25.66L1.91 25.66Q0.82 25.23 0 24.67L0 24.67L0.21 18.14L0.29 18.09Q2.71 22.27 8.24 22.27L8.24 22.27Q12.17 22.27 13.44 20.37L13.44 20.37Q13.87 19.73 13.87 18.94Q13.87 18.14 13.61 17.63Q13.36 17.11 12.77 16.74L12.77 16.74Q11.64 16.00 8.96 15.74Q6.29 15.49 4.59 14.79Q2.89 14.08 1.88 13.05L1.88 13.05Q0.04 11.17 0.04 7.81L0.04 7.81Q0.04 4.34 2.48 2.19L2.48 2.19Q4.96 0 9.17 0Q13.38 0 16.54 1.93ZM29.43 10L29.43 26.58Q28.50 26.46 25.82 26.46L25.82 26.46L24.26 26.46L24.26 0.41Q25.51 0.49 27.01 0.49Q28.52 0.49 29.14 0.33L29.14 0.33L35.70 11.48L42.01 0.33Q42.64 0.49 44.39 0.49Q46.15 0.49 47.40 0.41L47.40 0.41L47.40 26.46L45.84 26.46Q43.16 26.46 42.23 26.58L42.23 26.58L42.23 9.08L35.84 20.51L29.43 10ZM57.95 20.84L56.11 26.62Q54.43 26.46 52.19 26.46L52.19 26.46L50.64 26.46L59.14 2.66Q59.71 1.05 59.71 0.79Q59.71 0.53 59.69 0.47L59.69 0.47L59.71 0.43Q60.98 0.49 62.40 0.49L62.40 0.49Q63.57 0.49 65.21 0.45L65.21 0.45L65.23 0.49Q65.20 0.57 65.20 0.70L65.20 0.70Q65.20 1.07 65.78 2.68L65.78 2.68L74.45 26.52Q74.06 26.50 73.54 26.50L73.54 26.50Q73.54 26.50 72.52 26.46L72.52 26.46Q72.03 26.46 71.64 26.46L71.64 26.46L68.61 26.46L66.78 20.84L57.95 20.84ZM59.43 16.15L65.25 16.15L62.30 7.07L59.43 16.15ZM90.53 26.62L86.00 16.37Q85.41 16.41 84.75 16.41Q84.08 16.41 82.77 16.31L82.77 16.31L82.77 26.46L77.60 26.46L77.60 0.35Q80.33 0 84.32 0L84.32 0Q89.75 0 92.41 2.00Q95.08 4.00 95.08 8.18L95.08 8.18Q95.08 11.43 92.64 13.73L92.64 13.73Q91.84 14.47 90.80 15.02L90.80 15.02L94.79 23.42Q95.96 26.02 96.58 26.50L96.58 26.50L96.48 26.60Q94.59 26.29 90.53 26.62L90.53 26.62ZM84.69 4.61L84.69 4.61Q83.69 4.61 82.77 4.71L82.77 4.71L82.77 12.17Q83.73 12.30 85.02 12.30Q86.31 12.30 87.19 12.08Q88.07 11.86 88.71 11.39L88.71 11.39Q90.10 10.35 90.10 8.28Q90.10 6.21 88.65 5.37L88.65 5.37Q87.30 4.61 84.69 4.61ZM110.27 4.86L110.27 26.58Q109.34 26.46 105.45 26.46L105.45 26.46L104.82 26.46L104.82 4.86L100.96 4.86Q99.24 4.86 98.93 5.04Q98.61 5.21 98.44 5.35L98.44 5.35L98.38 5.33L98.38 0.33L98.44 0.27Q99.08 0.49 101.91 0.49L101.91 0.49L114.16 0.49Q115.88 0.49 116.19 0.31Q116.50 0.14 116.68 0L116.68 0L116.74 0.02L116.74 5.02L116.68 5.08Q116.04 4.86 113.20 4.86L113.20 4.86L110.27 4.86Z" transform="translate(0 0) scale(1.081)"></path><path fill="#4c4cff" fill-rule="nonzero" d="M5.08 15.43L5.08 26.58Q3.20 26.46 0.63 26.46L0.63 26.46L0 26.46L0 0.39Q1.21 0.49 1.72 0.49L1.72 0.49L2.52 0.49Q4.06 0.49 5.08 0.33L5.08 0.33L5.08 10.74L14.26 10.74L14.26 0.39Q15.88 0.49 17.41 0.49Q18.95 0.49 19.34 0.33L19.34 0.33L19.34 26.58Q18.40 26.46 15.63 26.46L15.63 26.46L14.26 26.46L14.26 15.43L5.08 15.43ZM31.54 21.78L39.51 21.78Q40.72 21.78 41.19 21.54L41.19 21.54L41.27 21.56L41.07 26.46L26.45 26.46L26.45 0.35Q26.97 0.39 27.62 0.41L27.62 0.41L28.98 0.45Q30.35 0.49 31.95 0.49L31.95 0.49Q36.43 0.49 40.80 0.33L40.80 0.33Q40.59 2.05 40.59 4.92L40.59 4.92Q40.59 5.23 40.63 5.39L40.63 5.39L40.59 5.45Q39.57 5.16 37.70 5.16L37.70 5.16L31.54 5.16L31.54 10.14L36.17 10.14Q38.32 10.14 38.75 10.02L38.75 10.02L38.81 14.84Q37.87 14.75 36.39 14.75L36.39 14.75L31.54 14.75L31.54 21.78ZM50.21 20.84L48.38 26.62Q46.70 26.46 44.45 26.46L44.45 26.46L42.91 26.46L51.41 2.66Q51.97 1.05 51.97 0.79Q51.97 0.53 51.95 0.47L51.95 0.47L51.97 0.43Q53.24 0.49 54.67 0.49L54.67 0.49Q55.84 0.49 57.48 0.45L57.48 0.45L57.50 0.49Q57.46 0.57 57.46 0.70L57.46 0.70Q57.46 1.07 58.05 2.68L58.05 2.68L66.72 26.52Q66.33 26.50 65.80 26.50L65.80 26.50Q65.80 26.50 64.79 26.46L64.79 26.46Q64.30 26.46 63.91 26.46L63.91 26.46L60.88 26.46L59.04 20.84L50.21 20.84ZM51.70 16.15L57.52 16.15L54.57 7.07L51.70 16.15ZM75.53 26.46L73.67 26.46Q70.80 26.46 69.86 26.58L69.86 26.58L69.86 0.37Q70.33 0.49 71.81 0.49Q73.28 0.49 75.23 0.41L75.23 0.41L75.23 21.78L79.28 21.78Q81.04 21.78 82.09 21.66L82.09 21.66Q81.95 26.23 81.95 26.41L81.95 26.41L81.95 26.60Q80.04 26.46 75.53 26.46L75.53 26.46ZM95.94 4.86L95.94 26.58Q95 26.46 91.11 26.46L91.11 26.46L90.49 26.46L90.49 4.86L86.62 4.86Q84.90 4.86 84.59 5.04Q84.28 5.21 84.10 5.35L84.10 5.35L84.04 5.33L84.04 0.33L84.10 0.27Q84.75 0.49 87.58 0.49L87.58 0.49L99.82 0.49Q101.54 0.49 101.86 0.31Q102.17 0.14 102.34 0L102.34 0L102.40 0.02L102.40 5.02L102.34 5.08Q101.70 4.86 98.87 4.86L98.87 4.86L95.94 4.86ZM111.88 15.43L111.88 26.58Q110 26.46 107.42 26.46L107.42 26.46L106.80 26.46L106.80 0.39Q108.01 0.49 108.52 0.49L108.52 0.49L109.32 0.49Q110.86 0.49 111.88 0.33L111.88 0.33L111.88 10.74L121.05 10.74L121.05 0.39Q122.68 0.49 124.21 0.49Q125.74 0.49 126.13 0.33L126.13 0.33L126.13 26.58Q125.20 26.46 122.42 26.46L122.42 26.46L121.05 26.46L121.05 15.43L111.88 15.43Z" transform="translate(0 37.123) scale(1)"></path><g fill="#ff4d4d" color="#ff4d4d" transform="translate(141.133 0) scale(0.6374328)"><svg width="100.0" height="100.0" x="0.0" y="0.0" viewBox="0 0 100 100"><path d="M49.992,94.271c-24.438,0-44.32-19.882-44.32-44.32c0-24.438,19.882-44.32,44.32-44.32c24.438,0,44.32,19.882,44.32,44.32  C94.312,74.389,74.431,94.271,49.992,94.271z M49.992,14.494c-19.55,0-35.456,15.906-35.456,35.456  c0,19.551,15.906,35.456,35.456,35.456c19.551,0,35.456-15.905,35.456-35.456C85.448,30.4,69.543,14.494,49.992,14.494z"></path><polygon points="73.734,43.619 56.324,43.619 56.324,26.208 43.661,26.208 43.661,43.619 26.25,43.619 26.25,56.282 43.661,56.282   43.661,73.692 56.324,73.692 56.324,56.282 73.734,56.282 "></polygon></svg></g></svg>