<?xml version="1.0" standalone="no"?>
<svg xmlns="http://www.w3.org/2000/svg" viewBox="0 0 100.345 115.868" width="100.345" height="115.868"><polygon fill="#4c4cff" points="100.345,28.967 100.345,86.901 50.1725,115.868 0,86.901 0,28.967 50.1725,0"></polygon><g fill="white" color="white" transform="translate(28.1725 22.5) scale(0.44)"><svg width="100.0" height="100.0" x="0.0" y="0.0" viewBox="0 0 100 100"><path d="M49.992,94.271c-24.438,0-44.32-19.882-44.32-44.32c0-24.438,19.882-44.32,44.32-44.32c24.438,0,44.32,19.882,44.32,44.32  C94.312,74.389,74.431,94.271,49.992,94.271z M49.992,14.494c-19.55,0-35.456,15.906-35.456,35.456  c0,19.551,15.906,35.456,35.456,35.456c19.551,0,35.456-15.905,35.456-35.456C85.448,30.4,69.543,14.494,49.992,14.494z"></path><polygon points="73.734,43.619 56.324,43.619 56.324,26.208 43.661,26.208 43.661,43.619 26.25,43.619 26.25,56.282 43.661,56.282   43.661,73.692 56.324,73.692 56.324,56.282 73.734,56.282 "></polygon></svg></g><path fill="white" fill-rule="nonzero" d="M11.58 1.35L11.58 1.35L11.32 5.37L11.22 5.40Q10.21 3.88 7.78 3.43L7.78 3.43Q7.01 3.28 6.31 3.28Q5.61 3.28 5.11 3.40Q4.61 3.53 4.25 3.76L4.25 3.76Q3.50 4.25 3.50 5.04L3.50 5.04Q3.50 6.08 4.16 6.60L4.16 6.60Q4.98 7.23 6.88 7.49Q8.78 7.74 9.93 8.18Q11.07 8.61 11.81 9.28L11.81 9.28Q13.21 10.54 13.21 12.84L13.21 12.84Q13.21 15.85 10.94 17.47L10.94 17.47Q9.00 18.87 6.04 18.87L6.04 18.87Q3.66 18.87 1.34 17.96L1.34 17.96Q0.57 17.66 0 17.27L0 17.27L0.15 12.70L0.21 12.66Q1.90 15.59 5.77 15.59L5.77 15.59Q8.52 15.59 9.41 14.26L9.41 14.26Q9.71 13.81 9.71 13.25Q9.71 12.70 9.53 12.34Q9.35 11.98 8.94 11.72L8.94 11.72Q8.15 11.20 6.28 11.02Q4.40 10.84 3.21 10.35Q2.02 9.86 1.31 9.13L1.31 9.13Q0.03 7.82 0.03 5.47L0.03 5.47Q0.03 3.04 1.74 1.53L1.74 1.53Q3.47 0 6.42 0Q9.37 0 11.58 1.35ZM20.60 10.80L20.60 18.61Q19.29 18.53 17.49 18.53L17.49 18.53L17.05 18.53L17.05 0.27Q17.90 0.34 18.25 0.34L18.25 0.34L18.81 0.34Q19.89 0.34 20.60 0.23L20.60 0.23L20.60 7.52L27.03 7.52L27.03 0.27Q28.16 0.34 29.24 0.34Q30.31 0.34 30.58 0.23L30.58 0.23L30.58 18.61Q29.93 18.53 27.99 18.53L27.99 18.53L27.03 18.53L27.03 10.80L20.60 10.80Z" transform="translate(34.881, 74.5)"></path></svg>